<svg width="47" height="23" viewBox="0 0 47 23" fill="none" xmlns="http://www.w3.org/2000/svg">
<path d="M6.82556 12.7688V6.75279H9.44956V12.7688H15.4336V15.3288H9.44956V21.4728H6.82556V15.3288H0.937563V12.7688H6.82556ZM25.8866 11.3608C24.4572 11.3608 23.4332 10.9128 22.8146 10.0168C22.1959 9.12079 21.7479 7.88346 21.4706 6.30479L22.8146 5.31279C22.9639 6.44346 23.2092 7.26479 23.5506 7.77679C23.9132 8.28879 24.5532 8.54479 25.4706 8.54479H30.4306V0.928789H32.7986V7.55279C32.7986 8.74746 32.4892 9.68612 31.8706 10.3688C31.2519 11.0301 30.3452 11.3608 29.1506 11.3608H25.8866ZM20.7346 11.9048C20.7346 9.87812 20.6386 8.09679 20.4466 6.56079C20.2759 5.00346 19.9986 3.15812 19.6146 1.02479L22.1106 0.22479C22.4732 2.59279 22.7292 4.53412 22.8786 6.04879C23.0279 7.56346 23.1026 9.37679 23.1026 11.4888V22.1448H20.7346V11.9048ZM41.9966 10.3368C42.8072 10.3368 43.5646 10.5501 44.2686 10.9768C44.9726 11.3821 45.5272 11.9368 45.9326 12.6408C46.3592 13.3448 46.5726 14.1128 46.5726 14.9448V15.9368C46.5726 16.7475 46.3592 17.5048 45.9326 18.2088C45.5272 18.8915 44.9726 19.4355 44.2686 19.8408C43.5859 20.2461 42.8286 20.4488 41.9966 20.4488H41.1006C40.2686 20.4488 39.5006 20.2461 38.7966 19.8408C38.1139 19.4355 37.5592 18.8915 37.1326 18.2088C36.7272 17.5048 36.5246 16.7475 36.5246 15.9368V14.9448C36.5246 14.1128 36.7272 13.3448 37.1326 12.6408C37.5379 11.9368 38.0926 11.3821 38.7966 10.9768C39.5006 10.5501 40.2686 10.3368 41.1006 10.3368H41.9966ZM44.3006 14.8808C44.3006 14.2835 44.1086 13.7928 43.7246 13.4088C43.3406 13.0248 42.8499 12.8328 42.2526 12.8328H40.8766C40.2792 12.8328 39.7779 13.0248 39.3726 13.4088C38.9886 13.7928 38.7966 14.2835 38.7966 14.8808V15.9048C38.7966 16.4595 38.9992 16.9395 39.4046 17.3448C39.8099 17.7288 40.3006 17.9208 40.8766 17.9208H42.2526C42.8499 17.9208 43.3406 17.7288 43.7246 17.3448C44.1086 16.9395 44.3006 16.4595 44.3006 15.9048V14.8808Z" fill="#ED4545"/>
</svg>
