<svg width="35" height="35" viewBox="0 0 35 35" fill="none" xmlns="http://www.w3.org/2000/svg">
<g opacity="0.2">
<path fill-rule="evenodd" clip-rule="evenodd" d="M17.14 23.0159C16.8751 23.2369 16.5693 23.4036 16.2399 23.5064C15.9106 23.6091 15.5642 23.646 15.2206 23.6148C14.877 23.5836 14.5429 23.4849 14.2375 23.3245C13.932 23.1641 13.6612 22.945 13.4405 22.6799L7.60774 15.6799C7.18179 15.143 6.98266 14.4609 7.05289 13.7792C7.12312 13.0976 7.45714 12.4704 7.98359 12.0317C8.51004 11.593 9.18717 11.3775 9.87034 11.4314C10.5535 11.4852 11.1885 11.8041 11.6397 12.3199L17.4742 19.3199C17.9196 19.8546 18.1344 20.5443 18.0714 21.2374C18.0084 21.9305 17.6745 22.5702 17.14 23.0159Z" fill="#ED4545"/>
<path fill-rule="evenodd" clip-rule="evenodd" d="M17.1408 4.98386C17.6753 5.42954 18.0109 6.06923 18.0739 6.76231C18.1369 7.45538 17.9221 8.14511 17.4768 8.67986L11.6423 15.6799C11.4247 15.9541 11.1545 16.182 10.8476 16.3502C10.5406 16.5184 10.2031 16.6236 9.85495 16.6594C9.50677 16.6953 9.15493 16.6612 8.82014 16.5591C8.48534 16.457 8.17435 16.2889 7.90545 16.0648C7.63656 15.8408 7.41519 15.5652 7.25438 15.2543C7.09357 14.9434 6.99656 14.6035 6.96905 14.2545C6.94155 13.9056 6.98411 13.5547 7.09423 13.2224C7.20435 12.8902 7.3798 12.5833 7.61027 12.3199L13.443 5.31987C13.6637 5.05495 13.9344 4.83611 14.2397 4.67585C14.545 4.51559 14.8789 4.41704 15.2223 4.38584C15.5657 4.35464 15.9118 4.39139 16.241 4.494C16.5702 4.59661 16.8759 4.76307 17.1408 4.98386Z" fill="#ED4545"/>
<path fill-rule="evenodd" clip-rule="evenodd" d="M10.5 14C10.5 13.3038 10.7766 12.6362 11.2688 12.1439C11.7611 11.6516 12.4288 11.375 13.125 11.375L27.125 11.375C27.8212 11.375 28.4889 11.6516 28.9812 12.1439C29.4734 12.6362 29.75 13.3038 29.75 14C29.75 14.6962 29.4734 15.3639 28.9812 15.8562C28.4889 16.3485 27.8212 16.625 27.125 16.625L13.125 16.625C12.4288 16.625 11.7611 16.3485 11.2688 15.8562C10.7766 15.3639 10.5 14.6962 10.5 14Z" fill="#ED4545"/>
</g>
<path fill-rule="evenodd" clip-rule="evenodd" d="M15.1445 25.1719C14.9662 25.3203 14.7363 25.3919 14.5053 25.3709C14.2743 25.3499 14.061 25.238 13.9125 25.0599L8.07973 18.0599C8.0029 17.9721 7.94442 17.8698 7.90771 17.759C7.87101 17.6483 7.85682 17.5313 7.86599 17.415C7.87515 17.2987 7.90749 17.1854 7.9611 17.0817C8.0147 16.9781 8.08849 16.8862 8.17812 16.8115C8.26775 16.7368 8.37142 16.6808 8.48301 16.6468C8.59461 16.6128 8.71189 16.6014 8.82795 16.6133C8.94401 16.6253 9.05651 16.6603 9.15882 16.7164C9.26114 16.7725 9.3512 16.8485 9.42372 16.9399L15.2565 23.9399C15.4049 24.1181 15.4765 24.348 15.4555 24.5791C15.4345 24.8101 15.3226 25.0233 15.1445 25.1719Z" fill="#ED4545"/>
<path fill-rule="evenodd" clip-rule="evenodd" d="M15.1445 9.82798C15.3226 9.97654 15.4345 10.1898 15.4555 10.4208C15.4765 10.6518 15.4049 10.8817 15.2565 11.06L9.42373 18.06C9.35121 18.1514 9.26114 18.2274 9.15882 18.2834C9.05651 18.3395 8.94401 18.3745 8.82795 18.3865C8.71189 18.3985 8.59461 18.3871 8.48302 18.3531C8.37142 18.319 8.26775 18.263 8.17812 18.1883C8.08849 18.1136 8.0147 18.0217 7.9611 17.9181C7.90749 17.8145 7.87515 17.7012 7.86599 17.5849C7.85682 17.4686 7.87101 17.3516 7.90771 17.2408C7.94442 17.1301 8.0029 17.0278 8.07973 16.94L13.9125 9.93998C14.061 9.76181 14.2743 9.64993 14.5053 9.62893C14.7363 9.60793 14.9662 9.67952 15.1445 9.82798Z" fill="#ED4545"/>
<path fill-rule="evenodd" clip-rule="evenodd" d="M8.75 17.5C8.75 17.2679 8.84219 17.0454 9.00628 16.8813C9.17038 16.7172 9.39294 16.625 9.625 16.625L26.25 16.625C26.4821 16.625 26.7046 16.7172 26.8687 16.8813C27.0328 17.0454 27.125 17.2679 27.125 17.5C27.125 17.7321 27.0328 17.9546 26.8687 18.1187C26.7046 18.2828 26.4821 18.375 26.25 18.375L9.625 18.375C9.39294 18.375 9.17038 18.2828 9.00628 18.1187C8.84219 17.9546 8.75 17.7321 8.75 17.5Z" fill="#ED4545"/>
</svg>
