<svg width="35" height="35" viewBox="0 0 35 35" fill="none" xmlns="http://www.w3.org/2000/svg">
<g opacity="0.2">
<path fill-rule="evenodd" clip-rule="evenodd" d="M17.86 23.0159C18.1249 23.237 18.4307 23.4036 18.7601 23.5064C19.0894 23.6092 19.4358 23.646 19.7794 23.6148C20.123 23.5836 20.4571 23.485 20.7625 23.3245C21.068 23.1641 21.3388 22.9451 21.5595 22.6799L27.3923 15.6799C27.8182 15.1431 28.0173 14.461 27.9471 13.7793C27.8769 13.0976 27.5429 12.4704 27.0164 12.0317C26.49 11.593 25.8128 11.3776 25.1297 11.4314C24.4465 11.4853 23.8115 11.8041 23.3603 12.3199L17.5258 19.3199C17.0804 19.8546 16.8656 20.5444 16.9286 21.2375C16.9916 21.9305 17.3255 22.5702 17.86 23.0159Z" fill="white"/>
<path fill-rule="evenodd" clip-rule="evenodd" d="M17.8592 4.98388C17.3247 5.42956 16.9891 6.06925 16.9261 6.76232C16.8631 7.45539 17.0779 8.14512 17.5232 8.67988L23.3577 15.6799C23.5753 15.9541 23.8455 16.182 24.1524 16.3502C24.4594 16.5184 24.7969 16.6236 25.1451 16.6595C25.4932 16.6953 25.8451 16.6612 26.1799 16.5591C26.5147 16.457 26.8257 16.2889 27.0945 16.0649C27.3634 15.8408 27.5848 15.5652 27.7456 15.2543C27.9064 14.9434 28.0034 14.6035 28.0309 14.2545C28.0584 13.9056 28.0159 13.5547 27.9058 13.2224C27.7957 12.8902 27.6202 12.5833 27.3897 12.3199L21.557 5.31988C21.3363 5.05497 21.0656 4.83613 20.7603 4.67586C20.455 4.5156 20.1211 4.41706 19.7777 4.38585C19.4343 4.35465 19.0882 4.39141 18.759 4.49402C18.4298 4.59663 18.1241 4.76308 17.8592 4.98388Z" fill="white"/>
<path fill-rule="evenodd" clip-rule="evenodd" d="M24.5 14.0001C24.5 13.3039 24.2234 12.6362 23.7312 12.1439C23.2389 11.6516 22.5712 11.3751 21.875 11.3751L7.875 11.3751C7.17881 11.3751 6.51113 11.6516 6.01884 12.1439C5.52656 12.6362 5.25 13.3039 5.25 14.0001C5.25 14.6963 5.52656 15.3639 6.01884 15.8562C6.51113 16.3485 7.17881 16.6251 7.875 16.6251L21.875 16.6251C22.5712 16.6251 23.2389 16.3485 23.7312 15.8562C24.2234 15.3639 24.5 14.6963 24.5 14.0001Z" fill="white"/>
</g>
<path fill-rule="evenodd" clip-rule="evenodd" d="M19.8555 25.1719C20.0338 25.3203 20.2637 25.3919 20.4947 25.3709C20.7257 25.3499 20.939 25.238 21.0875 25.0599L26.9203 18.0599C26.9971 17.9721 27.0556 17.8698 27.0923 17.759C27.129 17.6483 27.1432 17.5313 27.134 17.415C27.1248 17.2987 27.0925 17.1854 27.0389 17.0817C26.9853 16.9781 26.9115 16.8862 26.8219 16.8115C26.7322 16.7368 26.6286 16.6808 26.517 16.6468C26.4054 16.6128 26.2881 16.6014 26.172 16.6133C26.056 16.6253 25.9435 16.6603 25.8412 16.7164C25.7389 16.7725 25.6488 16.8485 25.5763 16.9399L19.7435 23.9399C19.5951 24.1181 19.5235 24.348 19.5445 24.5791C19.5655 24.8101 19.6774 25.0233 19.8555 25.1719Z" fill="white"/>
<path fill-rule="evenodd" clip-rule="evenodd" d="M19.8555 9.82798C19.6774 9.97654 19.5655 10.1898 19.5445 10.4208C19.5235 10.6518 19.5951 10.8817 19.7435 11.06L25.5763 18.06C25.6488 18.1514 25.7389 18.2274 25.8412 18.2834C25.9435 18.3395 26.056 18.3745 26.172 18.3865C26.2881 18.3985 26.4054 18.3871 26.517 18.3531C26.6286 18.319 26.7322 18.263 26.8219 18.1883C26.9115 18.1136 26.9853 18.0217 27.0389 17.9181C27.0925 17.8145 27.1248 17.7012 27.134 17.5849C27.1432 17.4686 27.129 17.3516 27.0923 17.2408C27.0556 17.1301 26.9971 17.0278 26.9203 16.94L21.0875 9.93998C20.939 9.76181 20.7257 9.64993 20.4947 9.62893C20.2637 9.60793 20.0338 9.67952 19.8555 9.82798Z" fill="white"/>
<path fill-rule="evenodd" clip-rule="evenodd" d="M26.25 17.5C26.25 17.2679 26.1578 17.0454 25.9937 16.8813C25.8296 16.7172 25.6071 16.625 25.375 16.625L8.75 16.625C8.51793 16.625 8.29538 16.7172 8.13128 16.8813C7.96719 17.0454 7.875 17.2679 7.875 17.5C7.875 17.7321 7.96719 17.9546 8.13128 18.1187C8.29538 18.2828 8.51793 18.375 8.75 18.375L25.375 18.375C25.6071 18.375 25.8296 18.2828 25.9937 18.1187C26.1578 17.9546 26.25 17.7321 26.25 17.5Z" fill="white"/>
</svg>
