<svg width="28" height="28" viewBox="0 0 28 28" fill="none" xmlns="http://www.w3.org/2000/svg">
<path fill-rule="evenodd" clip-rule="evenodd" d="M2.10117 3.73626C2.17092 3.52663 2.32106 3.35328 2.51858 3.25431C2.7161 3.15534 2.94483 3.13886 3.1545 3.20848L3.44895 3.30737L3.49339 3.32181C4.18895 3.55404 4.77672 3.74959 5.24006 3.96515C5.73117 4.19404 6.15784 4.47626 6.48117 4.92626C6.8045 5.37404 6.93895 5.86848 7.00006 6.40737C7.05784 6.91404 7.05784 7.53404 7.05784 8.26737V11.2218C7.05784 12.8163 7.06006 13.9296 7.17228 14.7685C7.28228 15.584 7.48339 16.0151 7.79006 16.3229C8.09784 16.6307 8.53006 16.8307 9.34561 16.9407C10.1845 17.0529 11.2967 17.0551 12.8912 17.0551H20.6689C20.7784 17.0551 20.8867 17.0767 20.9878 17.1186C21.089 17.1605 21.1808 17.2218 21.2582 17.2992C21.3356 17.3766 21.397 17.4685 21.4388 17.5696C21.4807 17.6707 21.5023 17.779 21.5023 17.8885C21.5023 17.9979 21.4807 18.1063 21.4388 18.2074C21.397 18.3085 21.3356 18.4004 21.2582 18.4777C21.1808 18.5551 21.089 18.6165 20.9878 18.6584C20.8867 18.7003 20.7784 18.7218 20.6689 18.7218H12.8301C11.3112 18.7218 10.0856 18.7218 9.12228 18.5918C8.12228 18.4585 7.28006 18.1696 6.61117 17.5018C5.94339 16.8329 5.65561 15.9907 5.52117 14.9907C5.39117 14.0274 5.39117 12.8018 5.39117 11.2829V8.31403C5.39117 7.52181 5.39117 6.99737 5.3445 6.59626C5.30006 6.21626 5.22561 6.03292 5.12895 5.9007C5.03339 5.76737 4.88339 5.63737 4.53672 5.47626C4.17006 5.30626 3.67339 5.13848 2.92228 4.88737L2.62784 4.78959C2.41841 4.71962 2.24532 4.56938 2.14657 4.37189C2.04782 4.17439 2.03149 3.94578 2.10117 3.73626Z" fill="#FE4242"/>
<path opacity="0.5" d="M7.05078 7.33301C7.05634 7.6219 7.05634 7.93301 7.05634 8.26745V11.2219C7.05634 12.8163 7.05856 13.9297 7.17078 14.7686C7.18745 14.8908 7.20634 15.0052 7.22634 15.1108H18.4708C19.5363 15.1108 20.0686 15.1108 20.4863 14.8352C20.9041 14.5597 21.1141 14.0708 21.533 13.0908L22.0108 11.9797C22.9097 9.87967 23.3586 8.8319 22.8652 8.0819C22.3708 7.33301 21.2297 7.33301 18.9452 7.33301H7.05078Z" fill="#FE4242"/>
<path d="M9.0026 20.6665C9.44463 20.6665 9.86855 20.8421 10.1811 21.1547C10.4937 21.4672 10.6693 21.8911 10.6693 22.3332C10.6693 22.7752 10.4937 23.1991 10.1811 23.5117C9.86855 23.8242 9.44463 23.9998 9.0026 23.9998C8.56058 23.9998 8.13665 23.8242 7.82409 23.5117C7.51153 23.1991 7.33594 22.7752 7.33594 22.3332C7.33594 21.8911 7.51153 21.4672 7.82409 21.1547C8.13665 20.8421 8.56058 20.6665 9.0026 20.6665ZM20.6693 22.3332C20.6693 21.8911 20.4937 21.4672 20.1811 21.1547C19.8686 20.8421 19.4446 20.6665 19.0026 20.6665C18.5606 20.6665 18.1367 20.8421 17.8241 21.1547C17.5115 21.4672 17.3359 21.8911 17.3359 22.3332C17.3359 22.7752 17.5115 23.1991 17.8241 23.5117C18.1367 23.8242 18.5606 23.9998 19.0026 23.9998C19.4446 23.9998 19.8686 23.8242 20.1811 23.5117C20.4937 23.1991 20.6693 22.7752 20.6693 22.3332Z" fill="#FE4242"/>
</svg>
